<svg xmlns="http://www.w3.org/2000/svg" viewBox="0 0 64 64">
  <defs>
    <linearGradient id="g" x1="0" y1="0" x2="1" y2="1">
      <stop offset="0%" stop-color="#42d3ff"/>
      <stop offset="100%" stop-color="#0b2a75"/>
    </linearGradient>
  </defs>
  <rect width="64" height="64" rx="12" fill="#fff"/>
  <path d="M44 12c-4-4-10-6.5-18-6.5C15 5.5 9 10 9 16c0 9.5 9.5 11 17 12 7 1 11.5 1.5 11.5 5.5S34 39 27 39c-6 0-10.5-2-14.5-5.5L9 40c4.5 3.5 11 6 19 6 12.5 0 19.5-6 19.5-13.5 0-9.6-9.8-11-17.4-12C22.6 19 18 18.5 18 16c0-3.5 3.2-5 8.5-5 5 0 9 1.8 12 4.7L44 12z" fill="url(#g)"/>
</svg>
