<svg xmlns="http://www.w3.org/2000/svg" viewBox="0 0 256 256" role="img" aria-label="Smithsons Logistics">
  <defs>
    <linearGradient id="g" x1="0" y1="0" x2="1" y2="1">
      <stop offset="0%" stop-color="#42d3ff"/>
      <stop offset="100%" stop-color="#0b2a75"/>
    </linearGradient>
  </defs>
  <rect width="256" height="256" rx="24" fill="#ffffff"/>
  <path d="M170 66c-16-16-38-26-66-26C65 40 40 61 40 88c0 35 36 40 64 44 27 3 44 5 44 20 0 14-14 22-40 22-22 0-42-7-57-19l-13 23c18 14 44 24 73 24 47 0 73-22 73-50 0-36-37-41-65-45-25-3-43-5-43-20 0-13 12-22 38-22 20 0 36 7 48 18l8-17z" fill="url(#g)"/>
  <g transform="translate(156,84)">
    <rect x="0" y="20" width="54" height="20" rx="4" fill="#0b2a75"/>
    <polygon points="54,20 70,30 54,40" fill="#0b2a75"/>
    <circle cx="16" cy="44" r="6" fill="#0b2a75"/>
  </g>
</svg>
